# xmcd
#
# Track frame offsets:
#	150
#	14255
#	32118
#	46611
#	63301
#	85541
#	102503
#	123000
#	143087
#	163588
#	183163
#	204100
#	226610
#	248025
#	267113
#	286370
#	305131
#
# Disc length: 4338 seconds
#
# Revision: 4
# Processed by: cddbd v1.5.2PL0 Copyright (c) Steve Scherf et al.
# Submitted via: EZCDAudioConverter 7.1.7.1
#
DISCID=d110f011
DTITLE=刘德华 - 我们的刘德华(粤) Disc 02
DYEAR=2012
DGENRE=
TTITLE0=我的胖侣
TTITLE1=心蓝
TTITLE2=将自己给你
TTITLE3=心只有妳
TTITLE4=你是我的女人
TTITLE5=挂念
TTITLE6=他的女人
TTITLE7=真生命
TTITLE8=一个人睡
TTITLE9=潮水
TTITLE10=绝对在乎您
TTITLE11=除非…是你
TTITLE12=情未鸟
TTITLE13=十年
TTITLE14=情深的一句
TTITLE15=心酸的情歌
TTITLE16=谁人知
EXTD=
EXTT0=
EXTT1=
EXTT2=
EXTT3=
EXTT4=
EXTT5=
EXTT6=
EXTT7=
EXTT8=
EXTT9=
EXTT10=
EXTT11=
EXTT12=
EXTT13=
EXTT14=
EXTT15=
EXTT16=
PLAYORDER=
